<svg xmlns="http://www.w3.org/2000/svg" width="46" height="40"><g fill="none" fill-rule="evenodd"><path fill="#193D44" fill-rule="nonzero" d="M20.792 8.23c1.005-.635 1.817-.946 2.57-.946.178 0 .348.016.512.049l.003-.01c.206-.851.818-1.558 1.758-2.098 1.164-.67 1.86-.939 2.55-.939.935 0 1.574.422 2.511 1.56.028.034 1.128 1.514 1.55 2.077l.046.06c.531.708.945 1.25 1.217 1.59.456.57.879 1.07 1.273 1.506.118.13.233.253.345.37l1.147 1.203c.565.192 1.129.387 1.352.465.673.237 1.364.656 1.743 1.036l.102.117 3.056 3.943c2.757 3.629 2.641 7.57-.301 11.97-2.606 3.9-6.897 6.212-11.741 6.34-.142.003-.29.005-.484.005-5.623 0-10.201-2.776-14.762-9.315A693.014 693.014 0 002.276 9.265a2.891 2.891 0 01-.395-.524l-.229-.304.075.005a2.922 2.922 0 01-.237-1.555c.127-1.014.79-1.87 1.921-2.588.861-.545 1.672-.827 2.447-.827 1.19 0 2.097.617 2.533 1.508l5.907 8.032c.305-.684.882-1.27 1.698-1.761.97-.584 1.695-.858 2.369-.858.234 0 .457.033.671.1.205-.873.8-1.658 1.756-2.263z"/><path fill="#769AA0" d="M20.58 21.318l-4.777-6.235c-.004-.005-.385-.541-.258-1.171.1-.506.507-.976 1.205-1.395.727-.437 1.254-.649 1.613-.649.258 0 .52.107.927.586.021.046.043.09.065.13l.026.049 3.535 4.555 4.118 5.376.034.043.035.034c.005.004.34.338.49.825.029.218-.005.463-.102.824-.23.852-1.188 1.516-1.748 1.6a1.968 1.968 0 01-.289.02c-.92 0-1.752-.632-1.935-.804l-2.94-3.788zm4.9-12.827c-.02-.025-.043-.006-.066-.034a1.13 1.13 0 01-.11-.786c.102-.419.458-.82 1.061-1.166.85-.488 1.427-.743 1.818-.743.38 0 .689.187 1.378 1.024.57.693 2.586 3.677 4.502 5.684h-5.459c-1.391-2.007-2.666-3.408-3.125-3.979zm-4.86 3.41c-.03-.04-.062-.087-.093-.127-.14-.41-.306-1.44 1.048-2.295.742-.469 1.342-.72 1.786-.72.358 0 .6.14.87.45.04.067.07.058.084.075l2.519 3.186H24.99c-.041 0-.094.1-.157.1-.402 0-.764.257-1.019.528-.31.329-.433.802-.368 1.406.053.48.215 1.1.5 1.75-1.466-1.915-2.86-3.737-3.327-4.353zm8.367 10.697a1.462 1.462 0 00-.447-.363l-2.503-3.165c.844.623 1.913 1.166 3.238 1.176.967.008 1.931.253 2.866.253h.274c.175 0 .408.42.373.91-.014.197-.07.15-.167.344-.282.429-.837 1.07-1.508 1.313-.154.056-.35.086-.555.086-.328 0-.836-.075-1.386-.432l-.185-.122z"/><path fill="#FFF" d="M38.308 15.176a3.823 3.823 0 00-1.17-.666c-.515-.181-1.4-.032-1.71-.032H24.851c-.013 0-.024-.06-.006.107.099.9 1.14 4.158 4.441 4.183.963.007 1.923-.045 2.854-.045 1.043 0 1.809-.032 2.22-.036a.755.755 0 01.502.007c.377.149.556.553.403.915-.017.04-1.139 2.783.346 5.495a.69.69 0 01-.311.952.757.757 0 01-.342.08.745.745 0 01-.654-.379 7.635 7.635 0 01-.884-2.76c-.478.557-1.125 1.082-1.812 1.331a3.138 3.138 0 01-1.051.173 3.89 3.89 0 01-1.598-.35 5.673 5.673 0 01-.106.475c-.374 1.393-1.795 2.433-2.896 2.596a3.362 3.362 0 01-.504.038c-1.552 0-2.838-1.05-3.063-1.346a.605.605 0 01-.03-.041l-8.27-10.657-6.942-9.44-.029-.06c-.012-.025-.387-.768-1.262-.768-.476 0-1.035.202-1.663.599-.76.483-1.18.995-1.245 1.523-.083.655.406 1.193.41 1.198l.054.063c.06.078 6.019 7.986 13.03 18.035 5.43 7.786 10.337 8.686 13.556 8.686.15 0 .298 0 .444-.005 4.372-.114 8.221-2.187 10.56-5.685 2.6-3.89 2.713-7.148.352-10.254l-3.047-3.932z"/></g></svg>